<?xml version="1.0" encoding="UTF-8"?>
<!DOCTYPE svg PUBLIC "-//W3C//DTD SVG 1.1//EN" "http://www.w3.org/Graphics/SVG/1.1/DTD/svg11.dtd">
<!-- Creator: CorelDRAW -->
<svg xmlns="http://www.w3.org/2000/svg" xml:space="preserve" width="6.82666in" height="6.82666in" style="shape-rendering:geometricPrecision; text-rendering:geometricPrecision; image-rendering:optimizeQuality; fill-rule:evenodd; clip-rule:evenodd"
viewBox="0 0 6.82666 6.82666"
 xmlns:xlink="http://www.w3.org/1999/xlink">
 <defs>
  <style type="text/css">
   <![CDATA[
    .fil1 {fill:#FEFEFE;fill-rule:nonzero}
    .fil0 {fill:url(#id0)}
   ]]>
  </style>
  <linearGradient id="id0" gradientUnits="userSpaceOnUse" x1="1.68784" y1="0.424697" x2="5.13882" y2="6.40196">
   <stop offset="0" style="stop-color:#444FF5"/>
   <stop offset="0.490196" style="stop-color:#21BFDB"/>
   <stop offset="1" style="stop-color:#1DABB6"/>
  </linearGradient>
 </defs>
 <g id="Layer_x0020_1">
  <metadata id="CorelCorpID_0Corel-Layer"/>
  <path class="fil0" d="M6.36936 1.70667c0.942567,1.63257 0.383209,3.72013 -1.24937,4.6627 -1.63257,0.942567 -3.72013,0.383209 -4.6627,-1.24937 -0.942567,-1.63257 -0.383209,-3.72013 1.24937,-4.6627 1.63257,-0.942567 3.72013,-0.383209 4.6627,1.24937z"/>
  <g id="_431990536">
   <path id="_431975248" class="fil1" d="M1.15291 2.02975l4.52084 0c0.0402677,0 0.0729134,0.0326457 0.0729134,0.0729173l0 2.62132c0,0.0402717 -0.0326457,0.0729173 -0.0729134,0.0729173l-4.52084 0c-0.0402677,0 -0.0729134,-0.0326457 -0.0729134,-0.0729173l0 -2.62132c0,-0.0402717 0.0326457,-0.0729173 0.0729134,-0.0729173zm4.44793 0.145835l-4.37501 0 0 2.47549 4.37501 0 0 -2.47549z"/>
   <path id="_431991352" class="fil1" d="M1.18937 2.03972c-0.0347638,-0.0201339 -0.0792717,-0.00827559 -0.0994055,0.0264882 -0.0201378,0.0347677 -0.00827559,0.0792756 0.0264882,0.0994094l2.26039 1.31064 -8.66142e-005 0.000153543c0.0250591,0.0145276 0.0551811,0.0124646 0.0776339,-0.00279921l2.25582 -1.308c0.0347638,-0.0201339 0.046626,-0.0646417 0.0264882,-0.0994094 -0.0201339,-0.0347638 -0.0646417,-0.046622 -0.0994055,-0.0264882l-2.22396 1.28952 -2.22396 -1.28952z"/>
   <path id="_431991400" class="fil1" d="M3.95935 3.62894c-0.0347677,-0.0199764 -0.0791496,-0.00799213 -0.099126,0.0267717 -0.0199764,0.0347677 -0.00799213,0.0791496 0.0267756,0.099126l1.03126 0.595394c0.0347638,0.0199764 0.0791457,0.00799213 0.099122,-0.0267717 0.0199764,-0.0347677 0.00799213,-0.0791496 -0.0267756,-0.099126l-1.03125 -0.595394z"/>
   <path id="_431990656" class="fil1" d="M2.93978 3.75276c0.0344488,-0.0207638 0.0455433,-0.0655276 0.0247795,-0.0999764 -0.0207638,-0.0344488 -0.0655276,-0.0455394 -0.0999764,-0.0247795l-1.02995 0.622783c-0.0344488,0.0207638 -0.0455433,0.0655276 -0.0247795,0.0999764 0.0207638,0.0344488 0.0655276,0.0455394 0.0999764,0.0247795l1.02995 -0.622783z"/>
  </g>
 </g>
</svg>
